# xmcd
#
# Track frame offsets:
#	150
#	22306
#	45823
#	71212
#	93693
#	114586
#	134726
#	155000
#	177979
#
# Disc length: 2641 seconds
#
# Revision: 1
# Processed by: cddbd v1.5.2PL0 Copyright (c) Steve Scherf et al.
# Submitted via: EZCDAudioConverter 8.0.2.1
#
DISCID=840a4f09
DTITLE=Cao Thái Sơn - vol 10. Điều Ngọt Ngào Nhất
DYEAR=2013
DGENRE=World Pop
TTITLE0=Điều Ngọt Ngào Nhất
TTITLE1=Anh sẽ không níu kéo
TTITLE2=Giấc mơ không phải anh
TTITLE3=Anh sai rồi
TTITLE4=Mình chia tay em nhé
TTITLE5=Điều anh giữ lại
TTITLE6=Giấc mơ đã muộn
TTITLE7=Ngày gặp lại
TTITLE8=Vượt qua
EXTD=
EXTT0=
EXTT1=
EXTT2=
EXTT3=
EXTT4=
EXTT5=
EXTT6=
EXTT7=
EXTT8=
PLAYORDER=
